# xmcd
#
# Track frame offsets: 
#        150
#        19521
#        34846
#        53069
#        70357
#        89367
#        117599
#        140704
#        182206
#        203166
#        226655
#        246145
#        262750
#
# Disc length: 3739 seconds
#
# Revision: 0
# Processed by: cddbd v1.5.2PL0 Copyright (c) Steve Scherf et al.
# Submitted via: ExactAudioCopy v1.0b3
#
DISCID=b10e990d
DTITLE=Ry Cooder - Record Plant, Sausalito, CA. 7th July 1974 KSAN-FM
DYEAR=1974
DGENRE=Blues
TTITLE0=Intro...Police Dog Blues
TTITLE1=F.D.R. In Trinidad
TTITLE2=If Walls Could Talk
TTITLE3=Tamp 'Em Up Solid
TTITLE4=Ax Sweet Mama
TTITLE5=Billy The Kid
TTITLE6=Vigilante Man
TTITLE7=How Can A Poor Man Stand Such Times And Live?
TTITLE8=Tattler
TTITLE9=Comin' In On A Wing And A Prayer
TTITLE10=Alimony
TTITLE11=Teardrops Will Fall
TTITLE12=I'm A Pilgrim
EXTD=
EXTT0=
EXTT1=
EXTT2=
EXTT3=
EXTT4=
EXTT5=
EXTT6=
EXTT7=
EXTT8=
EXTT9=
EXTT10=
EXTT11=
EXTT12=
PLAYORDER=
